inDegrees=yes
name=ik_20190930-094711-sensor_data_quaternions_Walking_00_30
DataType=double
version=3
OpenSimVersion=4.1
endheader
time	pelvis_tilt	pelvis_list	pelvis_rotation	pelvis_tx	pelvis_ty	pelvis_tz	hip_flexion_r	hip_adduction_r	hip_rotation_r	knee_angle_r	knee_angle_r_beta	ankle_angle_r	subtalar_angle_r	mtp_angle_r	hip_flexion_l	hip_adduction_l	hip_rotation_l	knee_angle_l	knee_angle_l_beta	ankle_angle_l	subtalar_angle_l	mtp_angle_l	lumbar_extension	lumbar_bending	lumbar_rotation	arm_flex_r	arm_add_r	arm_rot_r	elbow_flex_r	pro_sup_r	wrist_flex_r	wrist_dev_r	arm_flex_l	arm_add_l	arm_rot_l	elbow_flex_l	pro_sup_l	wrist_flex_l	wrist_dev_l
124	5.881009785625464	-2.942747948415531	154.2113215129323	0	0.9399999999999999	0	34.17389749488569	-7.684266309107614	-3.923474483979063	25.94908185791348	0.4528969162901177	3.818213349396592	0	0	9.569968830979208	2.29145270193383	-0.3349953890473812	0.09728485582102318	0.001697941046404826	-0.763911226809989	0	0	0	0	0	0	-14.56543301823658	0	74.95703229946298	45.00000057278871	0	0	0	-14.56543301823658	0	74.95703229946298	45.00000057278871	0	0
124.0078125	5.882477772460146	-2.800863290967444	154.2232373162841	0	0.9399999999999999	0	34.19870092825101	-6.722094496918005	-4.150104142938806	25.67580268468435	0.4481272949401413	2.40323048919781	0	0	9.500139255725607	2.233675417725833	-0.2940648872132935	0.09487227182571767	0.001655833512205825	-0.7384369644933314	0	0	0	0	0	0	-14.56573928575501	0	74.95709167574627	45.00000057158559	0	0	0	-14.56573928575501	0	74.95709167574627	45.00000057158559	0	0
124.015625	5.837619077570584	-2.688217888346364	154.2358274999776	0	0.9399999999999999	0	34.2800594727147	-5.794236083073836	-4.370686233866491	25.49037950851825	0.4448910500065374	1.016777197747206	0	0	9.39775413077836	2.252290593854462	-0.2360963580046528	0.09198505274838627	0.00160544203308	-0.7153045897217315	0	0	0	0	0	0	-14.56601929497135	0	74.95714591015209	45.00000057048988	0	0	0	-14.56601929497135	0	74.95714591015209	45.00000057048988	0	0
124.0234375	5.787395774341905	-2.589465507081357	154.2498052506623	0	0.9399999999999999	0	34.31917346673647	-4.877494945660741	-4.596254704261058	25.24700839959991	0.4406434228516827	-0.3784436241524488	0	0	9.295313114911211	2.297955767649564	-0.164753096132707	0.08868272895201125	0.001547805609866297	-0.6801751059376957	0	0	0	0	0	0	-14.56628281126085	0	74.95719690582384	45.00000056946242	0	0	0	-14.56628281126085	0	74.95719690582384	45.00000056946242	0	0
124.03125	5.716707003962758	-2.499419463526282	154.2641859996018	0	0.9399999999999999	0	34.30576075023671	-3.965358505473496	-4.836453296567361	24.92516022462191	0.4350261125067816	-1.802530699625452	0	0	9.17463939590365	2.371271923831887	-0.0873975862705109	0.08547445626048525	0.001491810688097347	-0.6423488814566231	0	0	0	0	0	0	-14.56654536125933	0	74.9572476807174	45.00000056844168	0	0	0	-14.56654536125933	0	74.9572476807174	45.00000056844168	0	0
124.0390625	5.628756127036083	-2.41732203401544	154.2727775310845	0	0.9399999999999999	0	34.2424417905664	-3.063210154700291	-5.087429325061687	24.52895465371456	0.4281110207797047	-3.229371950783606	0	0	9.040164204321302	2.463703685487712	-0.01955762378836718	0.08229089915224326	0.001436247134633255	-0.6031821851341364	0	0	0	0	0	0	-14.5668110275555	0	74.95729902852842	45.00000056741157	0	0	0	-14.5668110275555	0	74.95729902852842	45.00000056741157	0	0
124.046875	5.508627550634557	-2.345605353859055	154.2736559670109	0	0.9399999999999999	0	34.10811755275584	-2.185238413937363	-5.336984596668162	24.04002276320496	0.4195775494723117	-4.668615613878956	0	0	8.880591553031657	2.575915127875405	0.03355051792006233	0.07926662659043877	0.001383463620952043	-0.5626577876134012	0	0	0	0	0	0	-14.56710434795752	0	74.9573557047671	45.00000056627628	0	0	0	-14.56710434795752	0	74.9573557047671	45.00000056627628	0	0
124.0546875	5.401499205260432	-2.281429279170323	154.2692820097519	0	0.9399999999999999	0	33.98624813886119	-1.322503774928167	-5.609074732229233	23.52286964465837	0.4105515248167171	-6.04618239751798	0	0	8.730616432756133	2.700378115733542	0.06285633641779528	0.0766620308134143	0.001338004848959426	-0.4992312305542773	0	0	0	0	0	0	-14.56737516556095	0	74.95740798393152	45.00000056523211	0	0	0	-14.56737516556095	0	74.95740798393152	45.00000056523211	0	0
124.0625	5.265364241010969	-2.233964792347193	154.2551913439619	0	0.9399999999999999	0	33.79050740275887	-0.4970852017593175	-5.864063259635613	22.91643072604404	0.3999671689746632	-7.392686359030372	0	0	8.563638108463223	2.851777287653709	0.07225246860720756	0.0742284343218905	0.001295530577517354	-0.4201584500698655	0	0	0	0	0	0	-14.56767414625031	0	74.95746568232917	45.00000056408151	0	0	0	-14.56767414625031	0	74.95746568232917	45.00000056408151	0	0
124.0703125	5.163918106154835	-2.198907146162079	154.2380416837533	0	0.9399999999999999	0	33.58954668083282	0.3348533212889864	-6.135290734611555	22.23439277294174	0.3880633610694653	-8.697228133806986	0	0	8.419121368350012	2.988988541955842	0.074880440937534	0.07192771668703143	0.001255375479630366	-0.3321651553223203	0	0	0	0	0	0	-14.56794193821926	0	74.95751730592613	45.00000056305538	0	0	0	-14.56794193821926	0	74.95751730592613	45.00000056305538	0	0
124.078125	5.027275200004873	-2.175956609892422	154.2082455057306	0	0.9399999999999999	0	33.31916599601347	1.136460933917897	-6.393363539947957	21.49080279199782	0.3750852676171521	-9.9234757902961	0	0	8.248964904182335	3.148564377413674	0.06747112916487719	0.06955394063134784	0.001213945271753683	-0.233690057603833	0	0	0	0	0	0	-14.56822941262283	0	74.95757270795906	45.00000056195574	0	0	0	-14.56822941262283	0	74.95757270795906	45.00000056195574	0	0
124.0859375	4.919735459497616	-2.157204556479726	154.1931102485892	0	0.9399999999999999	0	33.08089514631755	1.931055449496974	-6.657099457225945	20.76551111672987	0.3624265398464208	-10.97423792025471	0	0	8.100101888228341	3.311591080414825	0.07084299520472459	0.0670189675381735	0.001169701644828326	-0.1156960452429788	0	0	0	0	0	0	-14.56847671878155	0	74.95762031988696	45.00000056101365	0	0	0	-14.56847671878155	0	74.95762031988696	45.00000056101365	0	0
124.09375	4.77892770302627	-2.152531173004113	154.1628561657734	0	0.9399999999999999	0	32.7777563283325	2.689454600128904	-6.89427744038692	20.0018361681061	0.3490978975779374	-11.93341040671848	0	0	7.925912368499911	3.494041089550016	0.06414183071001103	0.0647575013106209	0.001130231613234878	0.007180566148350925	0	0	0	0	0	0	-14.56873467482568	0	74.95766996315952	45.00000056003297	0	0	0	-14.56873467482568	0	74.95766996315952	45.00000056003297	0	0
124.1015625	4.64815563085655	-2.155416115411899	154.1393456297941	0	0.9399999999999999	0	32.47751932614186	3.410719608370405	-7.108787921218465	19.2474298992219	0.3359310242882226	-12.84243470263478	0	0	7.758313105510477	3.684908800379356	0.06204865842969966	0.06236501406366952	0.001088474833463602	0.1464599630709685	0	0	0	0	0	0	-14.5689998245801	0	74.95772095985082	45.00000055902769	0	0	0	-14.5689998245801	0	74.95772095985082	45.00000055902769	0	0
124.109375	4.517454861736084	-2.149396428682833	154.1244905252763	0	0.9399999999999999	0	32.20103801178056	4.087255420762998	-7.335683591715253	18.52652520508037	0.3233488637823701	-13.84627533616853	0	0	7.577388303030485	3.867673126708229	0.06639850969601339	0.06040336030759498	0.001054237516635987	0.284105134294679	0	0	0	0	0	0	-14.56924285735821	0	74.95776764198969	45.00000055811077	0	0	0	-14.56924285735821	0	74.95776764198969	45.00000055811077	0	0
124.1171875	4.377996707201411	-2.157904388737979	154.1152530166302	0	0.9399999999999999	0	31.91288930795077	4.713582058728709	-7.544738527026057	17.84035760268459	0.3113729799000485	-14.90774439389155	0	0	7.384715897262287	4.070566163030138	0.07437707736519172	0.05805624327782464	0.001013272596536865	0.438128884614464	0	0	0	0	0	0	-14.56947550367534	0	74.95781227976994	45.00000055723679	0	0	0	-14.56947550367534	0	74.95781227976994	45.00000055723679	0	0
124.125	4.257516307953529	-2.170064839345477	154.1138618991444	0	0.9399999999999999	0	31.61572895817849	5.338838382945533	-7.750754359487456	17.16543759723801	0.2995934036174276	-16.03109534176104	0	0	7.203043696731134	4.272769525207612	0.09944686079177271	0.05610162366194908	0.0009791580486157696	0.6198131787237974	0	0	0	0	0	0	-14.5697103938463	0	74.95785731660327	45.00000055635692	0	0	0	-14.5697103938463	0	74.95785731660327	45.00000055635692	0	0
